<svg aria-hidden="true" style="width:0;height:0;position:absolute;overflow:hidden" xmlns="http://www.w3.org/2000/svg"><defs><symbol id="search" viewBox="0 0 32 32"><path d="M21.293 22.708a11.307 11.307 0 0 1-7.281 2.647c-6.263 0-11.345-5.083-11.345-11.344S7.75 2.667 14.012 2.667c6.26 0 11.344 5.083 11.344 11.344 0 2.771-.996 5.312-2.647 7.281l6.332 6.333a.997.997 0 0 1 .292.708c0 .783-.716 1-1 1a.997.997 0 0 1-.708-.293zm-7.281-18.04c-5.157 0-9.343 4.187-9.343 9.343s4.185 9.343 9.343 9.343c5.155 0 9.343-4.187 9.343-9.343s-4.188-9.343-9.343-9.343z"/></symbol></defs></svg>