<svg aria-hidden="true" style="position: absolute; width: 0; height: 0; overflow: hidden;" version="1.1" xmlns="http://www.w3.org/2000/svg" xmlns:xlink="http://www.w3.org/1999/xlink">
<defs>
<symbol id="search" viewBox="0 0 32 32">
<path d="M21.293 22.708c-1.972 1.651-4.512 2.647-7.281 2.647-6.263 0-11.345-5.083-11.345-11.344s5.083-11.344 11.345-11.344c6.26 0 11.344 5.083 11.344 11.344 0 2.771-0.996 5.312-2.647 7.281l6.332 6.333c0.195 0.195 0.292 0.451 0.292 0.708 0 0.783-0.716 1-1 1-0.256 0-0.512-0.097-0.708-0.293zM14.012 4.668c-5.157 0-9.343 4.187-9.343 9.343s4.185 9.343 9.343 9.343c5.155 0 9.343-4.187 9.343-9.343s-4.188-9.343-9.343-9.343z"></path>
</symbol>
</defs>
</svg>
